<svg xmlns="http://www.w3.org/2000/svg" viewbox="0 0 64 64"><path d="M14 51h36c.6 0 1-.4 1-1V14c0-.6-.4-1-1-1H14c-.6 0-1 .4-1 1v36c0 .6.4 1 1 1zm1-36h34v34H15V15zM2 15h4c.6 0 1-.4 1-1s-.4-1-1-1H2c-.6 0-1 .4-1 1s.4 1 1 1zM2 51h4c.6 0 1-.4 1-1s-.4-1-1-1H2c-.6 0-1 .4-1 1s.4 1 1 1zM58 15h4c.6 0 1-.4 1-1s-.4-1-1-1h-4c-.6 0-1 .4-1 1s.4 1 1 1zM62 49h-4c-.6 0-1 .4-1 1s.4 1 1 1h4c.6 0 1-.4 1-1s-.4-1-1-1zM14 7c.6 0 1-.4 1-1V2c0-.6-.4-1-1-1s-1 .4-1 1v4c0 .6.4 1 1 1zM50 1c-.6 0-1 .4-1 1v4c0 .6.4 1 1 1s1-.4 1-1V2c0-.6-.4-1-1-1zM14 63c.6 0 1-.4 1-1v-4c0-.6-.4-1-1-1s-1 .4-1 1v4c0 .6.4 1 1 1zM51 62v-4c0-.6-.4-1-1-1s-1 .4-1 1v4c0 .6.4 1 1 1s1-.4 1-1z"/></svg>