<svg xmlns="http://www.w3.org/2000/svg" viewbox="0 0 32 32"><path d="M11 0c-.6 0-1 .4-1 1v2H6c-.6 0-1 .4-1 1v27c0 .6.4 1 1 1h20c.6 0 1-.4 1-1V4c0-.6-.4-1-1-1h-4V1c0-.6-.4-1-1-1s-1 .4-1 1v2h-3V1c0-.6-.4-1-1-1s-1 .4-1 1v2h-3V1c0-.6-.4-1-1-1zm4 5v2c0 .6.4 1 1 1s1-.4 1-1V5h3v2c0 .6.4 1 1 1s1-.4 1-1V5h3v25H7V5h3v2c0 .6.4 1 1 1s1-.4 1-1V5h3z"/><path d="M9 14v9c0 .6.4 1 1 1h12c.6 0 1-.4 1-1v-9c0-.6-.4-1-1-1H10c-.6 0-1 .4-1 1zm2 1h10v7H11v-7z"/><path d="M19 16h-6c-.6 0-1 .4-1 1s.4 1 1 1h6c.6 0 1-.4 1-1s-.4-1-1-1zM16 19h-3c-.6 0-1 .4-1 1s.4 1 1 1h3c.6 0 1-.4 1-1s-.4-1-1-1z"/></svg>