<svg xmlns="http://www.w3.org/2000/svg" viewbox="0 0 64 64"><path d="M23.4 37.7h-3V47h2v-3.3h.8c1.2 0 2-.3 2.7-.8.6-.5.9-1.3.9-2.3 0-1-.3-1.7-.9-2.2-.5-.4-1.4-.7-2.5-.7zm1 4c-.3.2-.8.4-1.4.4h-.6v-2.8h.9c.5 0 .9.1 1.2.3.3.2.4.6.4 1 0 .5-.2.9-.5 1.1zM31.8 37.7h-2.9V47h2.6c1.6 0 2.9-.4 3.8-1.2.9-.8 1.3-2 1.3-3.5 0-1.4-.4-2.6-1.3-3.4-.8-.8-2-1.2-3.5-1.2zm-.1 7.7h-.8v-6h1c1.8 0 2.6 1 2.6 3s-.9 3-2.8 3zM38.8 47h1.9v-3.7h3.1v-1.6h-3.1v-2.4h3.4v-1.6h-5.3z"/><path d="M61.7 31.3L57 26.6V18c0-.1 0-.3-.1-.4-.1-.1-.1-.2-.2-.3l-16-16c-.1-.1-.2-.2-.3-.2-.1-.1-.3-.1-.4-.1H8c-.6 0-1 .4-1 1v24.6l-4.7 4.7c-.1.1-.2.2-.2.3-.1.1-.1.3-.1.4v21c0 .6.4 1 1 1h4v8c0 .6.4 1 1 1h48c.6 0 1-.4 1-1v-8h4c.6 0 1-.4 1-1V32c0-.1 0-.3-.1-.4 0-.1-.1-.2-.2-.3zm-3.1-.3H57v-1.6l1.6 1.6zM41 4.4L53.6 17H41V4.4zM9 3h30v15c0 .6.4 1 1 1h15v12H9V3zM7 31H5.4L7 29.4V31zm48 30H9v-7h46v7zM4 52V33h56v19H4z"/></svg>