<svg xmlns="http://www.w3.org/2000/svg" viewbox="0 0 32 32"><path d="M30.1 16.3l-4.6-2.9C27 12.1 28 10.2 28 8V7c0-3.9-3.1-7-7-7s-7 3.1-7 7v1c0 2.2 1 4.1 2.5 5.4l-1.2.7C14.2 11.7 11.8 10 9 10c-3.9 0-7 3.1-7 7v1c0 2 .8 3.8 2.2 5.1l-2.7 2.3c-1 .7-1.5 1.8-1.5 3V31c0 .6.4 1 1 1h30c.6 0 1-.4 1-1V19.7c0-1.4-.7-2.7-1.9-3.4zM16 8V7c0-2.8 2.2-5 5-5s5 2.2 5 5v1c0 2.8-2.2 5-5 5s-5-2.2-5-5zM4 18v-1c0-2.8 2.2-5 5-5s5 2.2 5 5v1c0 2.8-2.2 5-5 5s-5-2.2-5-5zM2 28.4c0-.6.3-1.2.7-1.5l3.2-2.6c.9.4 2 .7 3.1.7s2.2-.3 3.1-.7l3.2 2.6c.5.4.7.9.7 1.5V30H2v-1.6zM30 30H18v-1.6c0-1.2-.5-2.3-1.5-3.1L13.8 23c1.4-1.2 2.2-3 2.2-5v-1c0-.3 0-.6-.1-.9l2.5-1.6c.8.3 1.7.5 2.6.5s1.8-.2 2.6-.5l5.5 3.5c.6.4.9 1 .9 1.7V30z"/></svg>